<?xml version="1.0" encoding="UTF-8"?>
<svg xmlns="http://www.w3.org/2000/svg" width="64" height="64" viewBox="0 0 64 64" role="img" aria-label="Botón agendar cita sin fondo">
  <!-- Calendario -->
  <g stroke="#0E2E6B" stroke-width="2.2" stroke-linecap="round" stroke-linejoin="round">
    <!-- cuerpo calendario -->
    <rect x="16" y="20" width="26" height="20" rx="3" fill="#F3D7B0"/>
    <!-- cabecera -->
    <rect x="16" y="16" width="26" height="8" rx="2.4" fill="#B5482B"/>
    <!-- aros -->
    <rect x="20" y="12" width="4" height="6" rx="1.5" fill="#E7B545"/>
    <rect x="34" y="12" width="4" height="6" rx="1.5" fill="#E7B545"/>

    <!-- borde discontinuo alrededor del calendario -->
    <rect x="16" y="16" width="26" height="24" rx="3.2" fill="none" stroke-dasharray="6 4"/>

    <!-- cuadrículas -->
    <rect x="20" y="26" width="3.4" height="3.4" rx="0.8" fill="#C85A1A" stroke="none"/>
    <rect x="26" y="26" width="3.4" height="3.4" rx="0.8" fill="#C85A1A" stroke="none"/>
    <rect x="32" y="26" width="3.4" height="3.4" rx="0.8" fill="#C85A1A" stroke="none"/>

    <rect x="20" y="32" width="3.4" height="3.4" rx="0.8" fill="#C85A1A" stroke="none"/>
    <rect x="26" y="32" width="3.4" height="3.4" rx="0.8" fill="#C85A1A" stroke="none"/>
    <rect x="32" y="32" width="3.4" height="3.4" rx="0.8" fill="#C85A1A" stroke="none"/>
  </g>

  <!-- Reloj superpuesto -->
  <g transform="translate(34,34)">
    <circle cx="10" cy="10" r="9.8" fill="#A9CAE9" stroke="#0E2E6B" stroke-width="2.2"/>
    <circle cx="10" cy="10" r="7.6" fill="#FFFFFF" stroke="none"/>
    <path d="M10 6.1 V10 L13.2 11.8" stroke="#0E2E6B" stroke-width="2.2" stroke-linecap="round" stroke-linejoin="round" fill="none"/>
  </g>
</svg>
