<?xml version="1.0" encoding="UTF-8"?>
<svg xmlns="http://www.w3.org/2000/svg" width="512" height="512" viewBox="0 0 512 512" role="img" aria-label="WhatsApp">
  <title>WhatsApp</title>
  <g fill="none" fill-rule="evenodd">
    <path fill="#25D366" d="M256 0C114.836 0 0 114.836 0 256c0 45.03 11.748 88.708 34.023 127.141L0 512l133.531-34.023C172.278 500.252 214.796 512 256 512c141.164 0 256-114.836 256-256S397.164 0 256 0z"/>
    <path stroke="#075E54" stroke-width="16" d="M256 16c132.548 0 240 107.452 240 240S388.548 496 256 496c-38.529 0-78.045-9.691-113.295-28.051l-5.76-3.067-104.182 26.561 26.561-104.182-3.067-5.76C37.691 334.045 28 294.529 28 256 28 123.452 135.452 16 268 16z"/>
    <path fill="#FFFFFF" d="M368.832 305.612c-5.49-2.745-32.495-16.045-37.534-17.871-5.04-1.827-8.71-2.745-12.38 2.745-3.67 5.49-14.203 17.87-17.4 21.54-3.198 3.67-6.394 4.118-11.884 1.373-5.49-2.745-23.18-8.544-44.167-27.258-16.335-14.548-27.351-32.496-30.548-37.986-3.198-5.49-.339-8.452 2.406-11.197 2.462-2.462 5.49-6.394 8.235-9.589 2.745-3.196 3.67-5.49 5.49-9.16 1.826-3.67 0.913-6.867-0.457-9.612-1.373-2.745-12.38-29.874-16.991-40.826-4.612-10.952-9.31-9.463-12.38-9.612-3.195-0.146-6.863-0.179-10.534-0.179-3.67 0-9.643 1.373-14.683 6.863-5.04 5.49-19.733 19.27-19.733 47.019s20.193 54.471 22.997 58.141c2.804 3.67 39.282 60.127 95.197 84.317 13.308 5.74 23.672 9.175 31.768 11.739 13.34 4.246 25.482 3.646 35.083 2.21 10.701-1.604 32.495-13.292 37.072-26.118 4.577-12.826 4.577-23.806 3.195-26.551-1.373-2.745-4.993-4.12-10.483-6.865z"/>
  </g>
</svg>
